<mxfile host="app.diagrams.net" modified="2023-04-27T07:11:19.831Z" agent="Mozilla/5.0 (Windows NT 10.0; Win64; x64) AppleWebKit/537.36 (KHTML, like Gecko) Chrome/112.0.0.0 Safari/537.36 Edg/112.0.1722.58" etag="KBfAG15pqK5RZh6SgA-W" version="21.2.3" type="github">
  <diagram name="Page-1" id="SAmjMMh0mYls4NnfvG6o">
    <mxGraphModel dx="1419" dy="830" grid="1" gridSize="10" guides="1" tooltips="1" connect="1" arrows="1" fold="1" page="1" pageScale="1" pageWidth="827" pageHeight="1169" math="0" shadow="0">
      <root>
        <mxCell id="0" />
        <mxCell id="1" parent="0" />
        <mxCell id="rtnqLseGNeoS7ngk5QEO-3" value="" style="rounded=0;whiteSpace=wrap;html=1;allowArrows=1;fillColor=none;" vertex="1" parent="1">
          <mxGeometry x="400" y="20" width="380" height="370" as="geometry" />
        </mxCell>
        <mxCell id="ROWF6r9AI5xVZ_-wrXh1-16" style="edgeStyle=orthogonalEdgeStyle;rounded=0;orthogonalLoop=1;jettySize=auto;html=1;entryX=0.5;entryY=0;entryDx=0;entryDy=0;" parent="1" source="ROWF6r9AI5xVZ_-wrXh1-2" target="ROWF6r9AI5xVZ_-wrXh1-9" edge="1">
          <mxGeometry relative="1" as="geometry" />
        </mxCell>
        <mxCell id="ROWF6r9AI5xVZ_-wrXh1-2" value="Choix du type I or O et de la voie" style="rounded=0;whiteSpace=wrap;html=1;" parent="1" vertex="1">
          <mxGeometry x="90" y="35" width="180" height="65" as="geometry" />
        </mxCell>
        <mxCell id="ROWF6r9AI5xVZ_-wrXh1-21" style="edgeStyle=orthogonalEdgeStyle;rounded=0;orthogonalLoop=1;jettySize=auto;html=1;entryX=0.5;entryY=0;entryDx=0;entryDy=0;" parent="1" source="ROWF6r9AI5xVZ_-wrXh1-5" target="ROWF6r9AI5xVZ_-wrXh1-18" edge="1">
          <mxGeometry relative="1" as="geometry" />
        </mxCell>
        <mxCell id="ROWF6r9AI5xVZ_-wrXh1-5" value="Calibration de la voie&lt;br&gt;boucle sur N points de mesure&amp;nbsp;" style="rounded=0;whiteSpace=wrap;html=1;" parent="1" vertex="1">
          <mxGeometry x="90" y="220" width="180" height="65" as="geometry" />
        </mxCell>
        <mxCell id="ROWF6r9AI5xVZ_-wrXh1-17" style="edgeStyle=orthogonalEdgeStyle;rounded=0;orthogonalLoop=1;jettySize=auto;html=1;" parent="1" source="ROWF6r9AI5xVZ_-wrXh1-9" target="ROWF6r9AI5xVZ_-wrXh1-5" edge="1">
          <mxGeometry relative="1" as="geometry" />
        </mxCell>
        <mxCell id="ROWF6r9AI5xVZ_-wrXh1-9" value="Message de description du materiel (tension min max etc)" style="rounded=0;whiteSpace=wrap;html=1;" parent="1" vertex="1">
          <mxGeometry x="90" y="130" width="180" height="60" as="geometry" />
        </mxCell>
        <mxCell id="ROWF6r9AI5xVZ_-wrXh1-15" value="" style="edgeStyle=orthogonalEdgeStyle;rounded=0;orthogonalLoop=1;jettySize=auto;html=1;" parent="1" source="ROWF6r9AI5xVZ_-wrXh1-10" target="ROWF6r9AI5xVZ_-wrXh1-14" edge="1">
          <mxGeometry relative="1" as="geometry" />
        </mxCell>
        <mxCell id="rtnqLseGNeoS7ngk5QEO-18" style="edgeStyle=orthogonalEdgeStyle;rounded=0;orthogonalLoop=1;jettySize=auto;html=1;entryX=0.5;entryY=1;entryDx=0;entryDy=0;" edge="1" parent="1" source="ROWF6r9AI5xVZ_-wrXh1-10" target="rtnqLseGNeoS7ngk5QEO-8">
          <mxGeometry relative="1" as="geometry" />
        </mxCell>
        <mxCell id="ROWF6r9AI5xVZ_-wrXh1-10" value="Tant que c est invalide&amp;nbsp;" style="rhombus;whiteSpace=wrap;html=1;" parent="1" vertex="1">
          <mxGeometry x="495" y="195" width="110" height="90" as="geometry" />
        </mxCell>
        <mxCell id="ROWF6r9AI5xVZ_-wrXh1-12" style="edgeStyle=orthogonalEdgeStyle;rounded=0;orthogonalLoop=1;jettySize=auto;html=1;" parent="1" source="ROWF6r9AI5xVZ_-wrXh1-11" target="ROWF6r9AI5xVZ_-wrXh1-10" edge="1">
          <mxGeometry relative="1" as="geometry" />
        </mxCell>
        <mxCell id="ROWF6r9AI5xVZ_-wrXh1-11" value="Demande de réponse&amp;nbsp;" style="rounded=0;whiteSpace=wrap;html=1;" parent="1" vertex="1">
          <mxGeometry x="490" y="100" width="120" height="50" as="geometry" />
        </mxCell>
        <mxCell id="ROWF6r9AI5xVZ_-wrXh1-14" value="Envois de la saisi (récap de ce qu&#39;il a choisit )" style="rounded=0;whiteSpace=wrap;html=1;" parent="1" vertex="1">
          <mxGeometry x="490" y="310" width="120" height="60" as="geometry" />
        </mxCell>
        <mxCell id="ROWF6r9AI5xVZ_-wrXh1-22" value="" style="edgeStyle=orthogonalEdgeStyle;rounded=0;orthogonalLoop=1;jettySize=auto;html=1;" parent="1" source="ROWF6r9AI5xVZ_-wrXh1-18" target="ROWF6r9AI5xVZ_-wrXh1-19" edge="1">
          <mxGeometry relative="1" as="geometry" />
        </mxCell>
        <mxCell id="ROWF6r9AI5xVZ_-wrXh1-23" style="edgeStyle=orthogonalEdgeStyle;rounded=0;orthogonalLoop=1;jettySize=auto;html=1;entryX=0.5;entryY=0;entryDx=0;entryDy=0;" parent="1" source="ROWF6r9AI5xVZ_-wrXh1-18" target="ROWF6r9AI5xVZ_-wrXh1-2" edge="1">
          <mxGeometry relative="1" as="geometry">
            <Array as="points">
              <mxPoint x="340" y="345" />
              <mxPoint x="340" y="15" />
              <mxPoint x="180" y="15" />
            </Array>
          </mxGeometry>
        </mxCell>
        <mxCell id="ROWF6r9AI5xVZ_-wrXh1-18" value="Visualisation des gain et offset demande une autre calibration" style="rounded=0;whiteSpace=wrap;html=1;" parent="1" vertex="1">
          <mxGeometry x="90" y="315" width="180" height="60" as="geometry" />
        </mxCell>
        <mxCell id="rtnqLseGNeoS7ngk5QEO-6" value="" style="edgeStyle=orthogonalEdgeStyle;rounded=0;orthogonalLoop=1;jettySize=auto;html=1;" edge="1" parent="1" source="ROWF6r9AI5xVZ_-wrXh1-19" target="rtnqLseGNeoS7ngk5QEO-5">
          <mxGeometry relative="1" as="geometry" />
        </mxCell>
        <mxCell id="ROWF6r9AI5xVZ_-wrXh1-19" value="Vérification de la calibration&amp;nbsp;&lt;br&gt;bouclage Entrées/Sorties" style="rounded=0;whiteSpace=wrap;html=1;" parent="1" vertex="1">
          <mxGeometry x="90" y="415" width="180" height="60" as="geometry" />
        </mxCell>
        <mxCell id="ROWF6r9AI5xVZ_-wrXh1-24" value="oui" style="text;html=1;align=center;verticalAlign=middle;resizable=0;points=[];autosize=1;strokeColor=none;fillColor=none;" parent="1" vertex="1">
          <mxGeometry x="280" y="315" width="40" height="30" as="geometry" />
        </mxCell>
        <mxCell id="rtnqLseGNeoS7ngk5QEO-1" value="Non" style="text;html=1;align=center;verticalAlign=middle;resizable=0;points=[];autosize=1;strokeColor=none;fillColor=none;" vertex="1" parent="1">
          <mxGeometry x="175" y="373" width="50" height="30" as="geometry" />
        </mxCell>
        <mxCell id="rtnqLseGNeoS7ngk5QEO-4" value="Chaque etat" style="text;html=1;align=center;verticalAlign=middle;resizable=0;points=[];autosize=1;strokeColor=none;fillColor=none;" vertex="1" parent="1">
          <mxGeometry x="405" y="40" width="90" height="30" as="geometry" />
        </mxCell>
        <mxCell id="rtnqLseGNeoS7ngk5QEO-5" value="Fin du programme" style="whiteSpace=wrap;html=1;" vertex="1" parent="1">
          <mxGeometry x="105" y="515" width="150" height="50" as="geometry" />
        </mxCell>
        <mxCell id="rtnqLseGNeoS7ngk5QEO-17" style="edgeStyle=orthogonalEdgeStyle;rounded=0;orthogonalLoop=1;jettySize=auto;html=1;exitX=0.5;exitY=0;exitDx=0;exitDy=0;entryX=0.5;entryY=0;entryDx=0;entryDy=0;" edge="1" parent="1" source="rtnqLseGNeoS7ngk5QEO-8" target="ROWF6r9AI5xVZ_-wrXh1-11">
          <mxGeometry relative="1" as="geometry">
            <Array as="points">
              <mxPoint x="680" y="70" />
              <mxPoint x="550" y="70" />
            </Array>
          </mxGeometry>
        </mxCell>
        <mxCell id="rtnqLseGNeoS7ngk5QEO-8" value="Retourne menu si touche esc" style="rounded=0;whiteSpace=wrap;html=1;" vertex="1" parent="1">
          <mxGeometry x="620" y="160" width="120" height="60" as="geometry" />
        </mxCell>
      </root>
    </mxGraphModel>
  </diagram>
</mxfile>
